<svg width="66" height="65" viewBox="0 0 66 65" fill="none" xmlns="http://www.w3.org/2000/svg">
<path d="M0.5 32.5C0.5 14.5507 15.0507 0 33 0C50.9493 0 65.5 14.5507 65.5 32.5C65.5 50.4493 50.9493 65 33 65C15.0507 65 0.5 50.4493 0.5 32.5Z" fill="white"/>
<path d="M33.003 23.8621C35.6475 23.8621 37.4314 25.0044 38.4485 25.9589L42.4232 22.0782C39.9821 19.8092 36.8055 18.4165 33.003 18.4165C27.4948 18.4165 22.7378 21.5774 20.4219 26.178L24.9755 29.7145C26.1178 26.3188 29.2787 23.8621 33.003 23.8621Z" fill="#EA4335"/>
<path d="M46.52 32.8129C46.52 31.6549 46.4261 30.8099 46.2227 29.9336H33V35.1601H40.7615C40.605 36.4589 39.76 38.4149 37.8822 39.7293L42.3263 43.1719C44.9865 40.7152 46.52 37.1004 46.52 32.8129Z" fill="#4285F4"/>
<path d="M24.9894 35.2854C24.6921 34.4091 24.52 33.4703 24.52 32.5001C24.52 31.5299 24.6921 30.591 24.9738 29.7147L20.4202 26.1782C19.4657 28.0873 18.918 30.2311 18.918 32.5001C18.918 34.7691 19.4657 36.9129 20.4202 38.8219L24.9894 35.2854Z" fill="#FBBC05"/>
<path d="M33.003 46.5831C36.8055 46.5831 39.9977 45.3313 42.3293 43.1718L37.8852 39.7292C36.6959 40.5586 35.0998 41.1376 33.003 41.1376C29.2787 41.1376 26.1178 38.6808 24.9911 35.2852L20.4375 38.8216C22.7534 43.4222 27.4948 46.5831 33.003 46.5831Z" fill="#34A853"/>
</svg>
